<svg xmlns="http://www.w3.org/2000/svg" viewBox="0 0 512 512">
    <path d="M471.948 18.357H40.052C17.596 18.357 0 35.953 0 58.409v308.402c0 22.456 17.596 40.052 40.052 40.052h431.896c22.456 0 40.052-17.596 40.052-40.052V58.409c0-22.456-17.596-40.052-40.052-40.052zm0 348.454H40.052l-.307-308.375s.094-.027.307-.027h431.896v308.402z"/>
    <path d="M235.64 386.837h40.052v86.78H235.64z"/>
    <path d="M328.428 453.591H182.905c-11.061 0-20.026 8.965-20.026 20.026s8.965 20.026 20.026 20.026h145.523c11.061 0 20.026-8.965 20.026-20.026s-8.965-20.026-20.026-20.026zM20.026 264.678h471.28v40.052H20.026z"/>
</svg>
