<svg height="512" width="512" xmlns="http://www.w3.org/2000/svg">
    <path d="M482 201H300.268C317.865 182.888 335 156.009 335 120c0-35.445 8.214-46.562 15.371-52.287C361.361 58.921 381.602 55 416 55c8.284 0 15-6.716 15-15s-6.716-15-15-15c-42.803 0-67.247 5.588-84.371 19.287C308.027 63.169 305 94.668 305 120c0 46.583-41.523 74.289-52.895 81H30c-16.542 0-30 13.458-30 30v226c0 16.542 13.458 30 30 30h452c16.542 0 30-13.458 30-30V231c0-16.542-13.458-30-30-30zm-162 64h16c8.284 0 15 6.716 15 15s-6.716 15-15 15h-16c-8.284 0-15-6.716-15-15s6.716-15 15-15zm-40 64h16c8.284 0 15 6.716 15 15s-6.716 15-15 15h-16c-8.284 0-15-6.716-15-15s6.716-15 15-15zm-40-64h16c8.284 0 15 6.716 15 15s-6.716 15-15 15h-16c-8.284 0-15-6.716-15-15s6.716-15 15-15zm-24 64c8.284 0 15 6.716 15 15s-6.716 15-15 15h-16c-8.284 0-15-6.716-15-15s6.716-15 15-15zm-56-64h16c8.284 0 15 6.716 15 15s-6.716 15-15 15h-16c-8.284 0-15-6.716-15-15s6.716-15 15-15zm-80 0h16c8.284 0 15 6.716 15 15s-6.716 15-15 15H80c-8.284 0-15-6.716-15-15s6.716-15 15-15zm16 158H80c-8.284 0-15-6.716-15-15s6.716-15 15-15h16c8.284 0 15 6.716 15 15s-6.716 15-15 15zm24-64c-8.284 0-15-6.716-15-15s6.716-15 15-15h16c8.284 0 15 6.716 15 15s-6.716 15-15 15zm232 64H160c-8.284 0-15-6.716-15-15s6.716-15 15-15h192c8.284 0 15 6.716 15 15s-6.716 15-15 15zm24-64h-16c-8.284 0-15-6.716-15-15s6.716-15 15-15h16c8.284 0 15 6.716 15 15s-6.716 15-15 15zm9-79c0-8.284 6.716-15 15-15h16c8.284 0 15 6.716 15 15s-6.716 15-15 15h-16c-8.284 0-15-6.716-15-15zm47 143h-16c-8.284 0-15-6.716-15-15s6.716-15 15-15h16c8.284 0 15 6.716 15 15s-6.716 15-15 15z"/>
</svg>
