<svg height="512" width="512" xmlns="http://www.w3.org/2000/svg">
    <circle cx="286" cy="474.5" r="7.5"/>
    <circle cx="316" cy="474.5" r="7.5"/>
    <path d="M256 467h-60c-4.142 0-7.5 3.357-7.5 7.5s3.358 7.5 7.5 7.5h60c4.142 0 7.5-3.357 7.5-7.5s-3.358-7.5-7.5-7.5z"/>
    <path d="M421 0H91C70.322 0 53.5 16.822 53.5 37.5v437c0 20.678 16.822 37.5 37.5 37.5h330c20.678 0 37.5-16.822 37.5-37.5v-437C458.5 16.822 441.678 0 421 0zm22.5 474.5c0 12.406-10.093 22.5-22.5 22.5H91c-12.407 0-22.5-10.094-22.5-22.5v-437C68.5 25.094 78.593 15 91 15h330c12.407 0 22.5 10.094 22.5 22.5z"/>
    <path d="M256 75c12.407 0 22.5-10.094 22.5-22.5S268.407 30 256 30s-22.5 10.094-22.5 22.5S243.593 75 256 75zm0-30c4.136 0 7.5 3.364 7.5 7.5S260.136 60 256 60s-7.5-3.364-7.5-7.5 3.364-7.5 7.5-7.5z"/>
    <path d="M421 60H304.633c-1.988 0-3.896.79-5.302 2.195-10.516 10.511-16.843 16.818-16.843 16.818C275.397 86.099 265.99 90 256 90c-9.983 0-19.405-3.905-26.517-10.984l-16.82-16.819A7.495 7.495 0 00207.36 60H91a7.5 7.5 0 00-7.5 7.5V241c0 4.143 3.358 7.5 7.5 7.5s7.5-3.357 7.5-7.5V75h105.754l14.635 14.635C228.844 99.543 242.023 105 256 105c13.994 0 27.167-5.46 37.09-15.375.425-.419 14.648-14.625 14.648-14.625H413.5v362h-315V271c0-4.143-3.358-7.5-7.5-7.5s-7.5 3.357-7.5 7.5v173.5A7.5 7.5 0 0091 452h330a7.5 7.5 0 007.5-7.5v-377A7.5 7.5 0 00421 60z"/>
</svg>
