<svg height="388pt" viewBox="0 -9 388.09 388" width="388pt" xmlns="http://www.w3.org/2000/svg">
    <path d="M194.86 10.637c101.03 0 183.23 78.258 183.23 174.441 0 96.18-82.2 174.438-183.23 174.438h-1.051V10.636zm0 0" fill="#00acea"/>
    <path d="M193.809 359.516v.59C93.449 360.105 10 281.585 10 185.077c0-96.511 83.45-175.03 183.809-175.03v.59c-100.547.539-182.18 78.59-182.18 174.441 0 95.848 81.633 173.899 182.18 174.438zm0 0" fill="#fedb41"/>
    <path d="M193.809 10.637v348.879c-100.547-.54-182.18-78.59-182.18-174.438 0-95.851 81.633-173.902 182.18-174.441zm0 0" fill="#fedb41"/>
    <path d="M57.387 316.04a197.25 197.25 0 00136.422 54.065c1.175 0 2.336-.21 3.437-.617 105.45-1.226 190.844-83.472 190.844-184.41C388.09 84.137 302.695 1.891 197.246.664a10.014 10.014 0 00-3.437-.617 197.253 197.253 0 00-136.422 54.07C20.383 89.223 0 135.734 0 185.078c0 49.34 20.383 95.852 57.387 130.961zM368.14 185.077c0 87.82-73.282 159.785-164.282 164.223V20.85c91 4.438 164.282 76.403 164.282 164.227zM71.176 68.625A177.833 177.833 0 01183.859 20.32v329.516a177.858 177.858 0 01-112.683-48.309c-32.985-31.293-51.153-72.652-51.153-116.449 0-43.8 18.168-85.16 51.153-116.453zm0 0" fill="#083863"/>
</svg>
