<svg xmlns="http://www.w3.org/2000/svg" viewBox="0 0 396 396">
    <path d="M390 190.762h-47.635v-48.824a7.5 7.5 0 00-7.5-7.5h-16.932V46.346c0-5.523-4.478-10-10-10H10c-5.523 0-10 4.477-10 10v191.182c0 5.523 4.477 10 10 10h103.467c-1.99 11.434-6.269 30.326-14.881 49.079a10 10 0 009.088 14.174h70.528v26.272a7.5 7.5 0 007.5 7.5h107.975v9.101a6 6 0 006 6H390a6 6 0 006-6V196.762a6 6 0 00-6-6zm-211.798-48.824v85.591H20V56.346h277.934v78.091H185.702a7.501 7.501 0 00-7.5 7.501zm115.475 187.615H193.202v-8.709h59.583v.704c0 4.143 3.357 7.5 7.5 7.5s7.5-3.357 7.5-7.5v-.704h25.892v8.709zm0-132.791v109.082H193.202V149.438h134.163v41.324h-27.688a6 6 0 00-6 6zM384 347.654h-78.323v-7.065h33.162v.597a6 6 0 1012 0v-.597H384v7.065zm0-19.066h-78.323V221.827H384v106.761zm0-118.761h-78.323v-7.065H384v7.065z"/>
</svg>
